<?xml version="1.0" ?><!DOCTYPE svg  PUBLIC '-//W3C//DTD SVG 1.1//EN'  'http://www.w3.org/Graphics/SVG/1.1/DTD/svg11.dtd'><svg enable-background="new 0 0 512 512" id="Layer_1" version="1.1" viewBox="0 0 512 512" xml:space="preserve" xmlns="http://www.w3.org/2000/svg" xmlns:xlink="http://www.w3.org/1999/xlink"><g><path d="M512,256c0,141.4-114.6,256-256,256C114.6,512,0,397.4,0,256C0,114.6,114.6,0,256,0   C397.4,0,512,114.6,512,256z" fill="#FF4500"/><g><g><circle cx="206.6" cy="271.9" fill="#FFFFFF" r="23.9"/><circle cx="307.9" cy="271.9" fill="#FFFFFF" r="23.9"/></g><g><path d="M427.9,244.5c0-21.6-17.6-39.1-39.1-39.1c-9.6,0-18.9,3.6-26,9.9c-26.5-17.1-60.7-27.1-97.2-28.4     l23.3-64.6l54.9,13.3c0,0.5-0.1,0.9-0.1,1.4c0,17.5,14.3,31.8,31.8,31.8s31.8-14.3,31.8-31.8c0-17.5-14.3-31.8-31.8-31.8     c-12.8,0-23.8,7.6-28.8,18.5l-65.7-16l-28.5,79.2c-37.8,0.8-73.3,10.8-100.6,28.5c-7.1-6.3-16.4-9.9-26-9.9     c-21.6,0-39.1,17.6-39.1,39.1c0,14,7.3,26.6,19.2,33.7c-0.6,3.8-1,7.7-1,11.7c0,28,16.2,54.2,45.6,73.7     c28.6,19,66.6,29.4,106.9,29.4c40.3,0,78.2-10.4,106.8-29.4c29.4-19.5,45.6-45.6,45.6-73.7c0-3.9-0.3-7.8-1-11.7     C420.5,271.1,427.9,258.4,427.9,244.5z M375.4,117.5c10.7,0,19.5,8.7,19.5,19.5c0,10.7-8.7,19.5-19.5,19.5     c-10.7,0-19.5-8.7-19.5-19.5C355.9,126.2,364.7,117.5,375.4,117.5z M98.9,244.5c0-14.8,12-26.8,26.8-26.8c5.7,0,11.1,1.8,15.6,5     c-15.8,12.4-26.7,27-32.3,42.7C102.7,260.4,98.9,252.8,98.9,244.5z M257.2,380.5c-77.3,0-140.1-40.7-140.1-90.7     c0-50,62.9-90.7,140.1-90.7s140.1,40.7,140.1,90.7C397.3,339.8,334.5,380.5,257.2,380.5z M405.5,265.4     c-5.6-15.7-16.5-30.3-32.3-42.7c4.5-3.2,10-5,15.6-5c14.8,0,26.8,12,26.8,26.8C415.5,252.7,411.7,260.4,405.5,265.4z" fill="#FFFFFF"/><path d="M306,326.9c-10.7,9.5-28.9,15.2-48.8,15.2s-38.1-5.7-48.8-15.2c-2.5-2.3-6.4-2.1-8.7,0.5     c-2.3,2.5-2.1,6.4,0.5,8.7c12.9,11.5,34.2,18.4,57,18.4s44.2-6.9,57-18.4c2.5-2.3,2.8-6.2,0.5-8.7     C312.5,324.8,308.6,324.6,306,326.9z" fill="#FFFFFF"/></g></g></g></svg>